nColumns=19
nRows=79
DataType=double
version=3
OpenSimVersion=4.1
endheader
time	ground_force_1_vx	ground_force_1_vy	ground_force_1_vz	ground_force_1_px	ground_force_1_py	ground_force_1_pz	ground_force_1_mx	ground_force_1_my	ground_force_1_mz	ground_force_2_vx	ground_force_2_vy	ground_force_2_vz	ground_force_2_px	ground_force_2_py	ground_force_2_pz	ground_force_2_mx	ground_force_2_my	ground_force_2_mz
0.54	-33.4304	85.9288	-6.19355	0.964295	0	-0.246538	-0	0.190663	-0	0	0	0	-0.000533353	0	-0.000183281	0	0	0
0.55	-42.3545	208.006	-8.19949	0.888747	0	-0.286201	0	-0.580529	0	0	0	0	-0.000533353	0	-0.000183281	0	0	0
0.56	-40.8329	425.373	1.15994	0.874843	0	-0.29003	0	-0.302778	0	0	0	0	-0.000533353	0	-0.000183281	0	0	0
0.57	-52.8445	698.008	25.675	0.869479	0	-0.289852	-0	0.33036	-0	0	0	0	-0.000533353	0	-0.000183281	0	0	0
0.58	-102.608	931.895	46.798	0.865501	0	-0.28854	-0	0.689673	-0	0	0	0	-0.000533353	0	-0.000183281	0	0	0
0.59	-169.196	1080.51	37.5877	0.858245	0	-0.286658	-0	0.833839	-0	0	0	0	-0.000533353	0	-0.000183281	0	0	0
0.6	-209.556	1191.45	3.69984	0.843543	0	-0.284276	-0	1.05418	-0	0	0	0	-0.000533353	0	-0.000183281	0	0	0
0.61	-205.141	1315.75	-17.1485	0.820327	0	-0.281458	-0	1.30972	-0	0	0	0	-0.000533353	0	-0.000183281	0	0	0
0.62	-174.723	1444.95	-16.9763	0.791684	0	-0.278502	-0	1.26354	-0	0	0	0	-0.000533353	0	-0.000183281	0	0	0
0.63	-137.988	1540.37	-24.6108	0.761505	0	-0.275765	-0	0.732921	-0	0	0	0	-0.000533353	0	-0.000183281	0	0	0
0.64	-97.4918	1585.66	-45.1386	0.731339	0	-0.273388	0	-0.076986	0	0	0	0	-0.000533353	0	-0.000183281	0	0	0
0.65	-50.685	1593.46	-55.2765	0.700658	0	-0.271381	0	-0.803427	0	0	0	0	-0.000533353	0	-0.000183281	0	0	0
0.66	1.1677	1571.75	-50.9992	0.668402	0	-0.269863	0	-1.30945	0	0	0	0	-0.000533353	0	-0.000183281	0	0	0
0.67	56.0038	1513.03	-44.61	0.634033	0	-0.269055	0	-1.84336	0	0	0	0	-0.000533353	0	-0.000183281	0	0	0
0.68	109.392	1414.09	-35.6745	0.598019	0	-0.26904	0	-2.83839	0	0	0	0	-0.000533353	0	-0.000183281	0	0	0
0.69	155.065	1281.33	-19.6254	0.561713	0	-0.269626	0	-4.44675	0	0	0	0	-0.000533353	0	-0.000183281	0	0	0
0.7	188.335	1119.65	-0.666118	0.526569	0	-0.270428	0	-6.16187	0	0	0	0	-0.000533353	0	-0.000183281	0	0	0
0.71	203.81	933.178	12.9938	0.493235	0	-0.271011	0	-6.98868	0	0	0	0	-0.000533353	0	-0.000183281	0	0	0
0.72	197.357	731.655	17.7076	0.461192	0	-0.270958	0	-6.21599	0	0	0	0	-0.000533353	0	-0.000183281	0	0	0
0.73	174.463	532.59	14.9285	0.42894	0	-0.269758	0	-4.17453	0	0	0	0	-0.000533353	0	-0.000183281	0	0	0
0.74	144.616	356.042	9.85813	0.394102	0	-0.266444	0	-2.18814	0	0	0	0	-0.000533353	0	-0.000183281	0	0	0
0.75	110.182	214.004	6.96701	0.351903	0	-0.258514	0	-1.57152	0	0	0	0	-0.000533353	0	-0.000183281	0	0	0
0.76	71.8434	111.45	5.66143	0.289564	0	-0.237189	0	-2.48005	0	0	0	0	-0.000533353	0	-0.000183281	0	0	0
0.77	0	0	0	-0.000533353	0	-0.000183281	0	0	0	0	0	0	-0.000533353	0	-0.000183281	0	0	0
0.78	0	0	0	-0.000533353	0	-0.000183281	0	0	0	0	0	0	-0.000533353	0	-0.000183281	0	0	0
0.79	0	0	0	-0.000533353	0	-0.000183281	0	0	0	0	0	0	-0.000533353	0	-0.000183281	0	0	0
0.8	0	0	0	-0.000533353	0	-0.000183281	0	0	0	0	0	0	-0.000533353	0	-0.000183281	0	0	0
0.81	0	0	0	-0.000533353	0	-0.000183281	0	0	0	0	0	0	-0.000533353	0	-0.000183281	0	0	0
0.82	0	0	0	-0.000533353	0	-0.000183281	0	0	0	0	0	0	-0.000533353	0	-0.000183281	0	0	0
0.83	0	0	0	-0.000533353	0	-0.000183281	0	0	0	0	0	0	-0.000533353	0	-0.000183281	0	0	0
0.84	0	0	0	-0.000533353	0	-0.000183281	0	0	0	0	0	0	-0.000533353	0	-0.000183281	0	0	0
0.85	0	0	0	-0.000533353	0	-0.000183281	0	0	0	-16.2477	55.136	-3.60149	1.08701	0	-0.28314	-0	2.15355	-0
0.86	0	0	0	-0.000533353	0	-0.000183281	0	0	0	-27.0223	154.408	-3.21531	0.938622	0	-0.345706	0	-0.446058	0
0.87	0	0	0	-0.000533353	0	-0.000183281	0	0	0	-27.3208	343.488	6.2114	0.924835	0	-0.345462	0	-1.93658	0
0.88	0	0	0	-0.000533353	0	-0.000183281	0	0	0	-31.8128	596.755	20.4908	0.915722	0	-0.344956	0	-2.21737	0
0.89	0	0	0	-0.000533353	0	-0.000183281	0	0	0	-72.6796	835.473	22.31	0.908238	0	-0.345128	0	-2.07146	0
0.9	0	0	0	-0.000533353	0	-0.000183281	0	0	0	-150.117	1001.23	12.7967	0.899775	0	-0.34589	0	-2.03839	0
0.91	0	0	0	-0.000533353	0	-0.000183281	0	0	0	-219.945	1115.78	8.4876	0.886621	0	-0.346844	0	-2.16072	0
0.92	0	0	0	-0.000533353	0	-0.000183281	0	0	0	-240.677	1237.08	15.88	0.866431	0	-0.347593	0	-2.27294	0
0.93	0	0	0	-0.000533353	0	-0.000183281	0	0	0	-219.29	1371.55	31.2576	0.840623	0	-0.348117	0	-2.24816	0
0.94	0	0	0	-0.000533353	0	-0.000183281	0	0	0	-187.546	1480.52	46.058	0.812429	0	-0.348717	0	-2.02962	0
0.95	0	0	0	-0.000533353	0	-0.000183281	0	0	0	-155.103	1538.99	54.477	0.783513	0	-0.349571	0	-1.60385	0
0.96	0	0	0	-0.000533353	0	-0.000183281	0	0	0	-116.873	1553.75	59.3896	0.753712	0	-0.350489	0	-1.02656	0
0.97	0	0	0	-0.000533353	0	-0.000183281	0	0	0	-70.6563	1537.77	64.9295	0.722557	0	-0.351052	0	-0.420594	0
0.98	0	0	0	-0.000533353	0	-0.000183281	0	0	0	-18.3004	1495.51	63.4662	0.690181	0	-0.350876	-0	0.093586	-0
0.99	0	0	0	-0.000533353	0	-0.000183281	0	0	0	37.5999	1424.55	49.8077	0.657233	0	-0.349758	-0	0.433563	-0
1	0	0	0	-0.000533353	0	-0.000183281	0	0	0	89.626	1321.12	30.524	0.62431	0	-0.347707	-0	0.536695	-0
1.01	0	0	0	-0.000533353	0	-0.000183281	0	0	0	131.551	1185.6	12.1608	0.591437	0	-0.344939	-0	0.391588	-0
1.02	0	0	0	-0.000533353	0	-0.000183281	0	0	0	163.122	1022.77	-3.1646	0.558096	0	-0.341834	-0	0.116164	-0
1.03	0	0	0	-0.000533353	0	-0.000183281	0	0	0	180.365	842.237	-14.0042	0.523737	0	-0.338812	0	-0.06123	0
1.04	0	0	0	-0.000533353	0	-0.000183281	0	0	0	177.623	657.296	-18.8317	0.488223	0	-0.336171	-0	0.025093	-0
1.05	0	0	0	-0.000533353	0	-0.000183281	0	0	0	159.828	481.002	-18.8715	0.451797	0	-0.333904	-0	0.284735	-0
1.06	0	0	0	-0.000533353	0	-0.000183281	0	0	0	136.459	324.426	-16.3187	0.414754	0	-0.331467	-0	0.364398	-0
1.07	0	0	0	-0.000533353	0	-0.000183281	0	0	0	107.354	196.397	-12.5427	0.376994	0	-0.327189	0	-0.062349	0
1.08	0	0	0	-0.000533353	0	-0.000183281	0	0	0	70.6342	104.229	-8.59199	0.339323	0	-0.315485	0	-0.881932	0
1.09	0	0	0	-0.000533353	0	-0.000183281	0	0	0	0	0	0	-0.000533353	0	-0.000183281	0	0	0
1.1	0	0	0	-0.000533353	0	-0.000183281	0	0	0	0	0	0	-0.000533353	0	-0.000183281	0	0	0
1.11	0	0	0	-0.000533353	0	-0.000183281	0	0	0	0	0	0	-0.000533353	0	-0.000183281	0	0	0
1.12	0	0	0	-0.000533353	0	-0.000183281	0	0	0	0	0	0	-0.000533353	0	-0.000183281	0	0	0
1.13	0	0	0	-0.000533353	0	-0.000183281	0	0	0	0	0	0	-0.000533353	0	-0.000183281	0	0	0
1.14	0	0	0	-0.000533353	0	-0.000183281	0	0	0	0	0	0	-0.000533353	0	-0.000183281	0	0	0
1.15	0	0	0	-0.000533353	0	-0.000183281	0	0	0	0	0	0	-0.000533353	0	-0.000183281	0	0	0
1.16	0	0	0	-0.000533353	0	-0.000183281	0	0	0	0	0	0	-0.000533353	0	-0.000183281	0	0	0
1.17	-25.28	87.3576	-7.71729	0.939401	0	-0.215668	-0	0.31066	-0	0	0	0	-0.000533353	0	-0.000183281	0	0	0
1.18	-33.5075	230.706	-16.556	0.90272	0	-0.269306	-0	0.18879	-0	0	0	0	-0.000533353	0	-0.000183281	0	0	0
1.19	-39.7668	486.154	-16.8275	0.896585	0	-0.274393	-0	0.489679	-0	0	0	0	-0.000533353	0	-0.000183281	0	0	0
1.2	-61.9727	797.028	4.99743	0.892917	0	-0.275261	-0	1.06488	-0	0	0	0	-0.000533353	0	-0.000183281	0	0	0
1.21	-115.048	1042.24	35.7656	0.88833	0	-0.274903	-0	1.31209	-0	0	0	0	-0.000533353	0	-0.000183281	0	0	0
1.22	-179.647	1173.87	39.2482	0.879534	0	-0.273856	-0	1.03258	-0	0	0	0	-0.000533353	0	-0.000183281	0	0	0
1.23	-217.952	1261.09	7.89445	0.863211	0	-0.272077	-0	0.446781	-0	0	0	0	-0.000533353	0	-0.000183281	0	0	0
1.24	-211.288	1361.04	-16.1792	0.838707	0	-0.269449	0	-0.234495	0	0	0	0	-0.000533353	0	-0.000183281	0	0	0
1.25	-179.191	1460.45	-16.6903	0.809114	0	-0.266195	0	-0.961236	0	0	0	0	-0.000533353	0	-0.000183281	0	0	0
1.26	-138.876	1523.32	-27.7066	0.778201	0	-0.262826	0	-1.66423	0	0	0	0	-0.000533353	0	-0.000183281	0	0	0
1.27	-93.0133	1542.71	-57.4124	0.747464	0	-0.259728	0	-2.18264	0	0	0	0	-0.000533353	0	-0.000183281	0	0	0
1.28	-44.2836	1534.2	-72.5131	0.716375	0	-0.257103	0	-2.4433	0	0	0	0	-0.000533353	0	-0.000183281	0	0	0
1.29	5.80758	1502.32	-64.8252	0.683829	0	-0.255183	0	-2.59816	0	0	0	0	-0.000533353	0	-0.000183281	0	0	0
1.3	58.3019	1437.39	-53.1851	0.649249	0	-0.25425	0	-2.93518	0	0	0	0	-0.000533353	0	-0.000183281	0	0	0
1.31	107.899	1337.2	-40.6846	0.61315	0	-0.254401	0	-3.67235	0	0	0	0	-0.000533353	0	-0.000183281	0	0	0
1.32	148.696	1208.99	-23.4002	0.576992	0	-0.255396	0	-4.76187	0	0	0	0	-0.000533353	0	-0.000183281	0	0	0
